<?xml version="1.0" encoding="utf-8"?>
<!-- Generator: Adobe Illustrator 23.0.6, SVG Export Plug-In . SVG Version: 6.00 Build 0)  -->
<svg version="1.1" id="Layer_1" xmlns="http://www.w3.org/2000/svg" xmlns:xlink="http://www.w3.org/1999/xlink" x="0px" y="0px"
	 viewBox="0 0 64 64" enable-background="new 0 0 64 64" xml:space="preserve">
<g>
	<g>
		<path fill="#0073AA" d="M55.51,53.42l-2.53-1.01v-0.87c1.25-0.93,2-2.4,2-3.95v-2.55c0-1.06-0.41-2.05-1.16-2.79
			c-0.74-0.74-1.73-1.15-2.78-1.15c0,0-0.01,0-0.01,0l-2,0.01c-1.44,0.01-2.7,0.79-3.38,1.95l-1.68-0.67v-0.87
			c1.25-0.93,2-2.4,2-3.96v-2.55c0-1.06-0.41-2.05-1.16-2.79c-0.74-0.74-1.73-1.15-2.78-1.15c0,0-0.01,0-0.01,0l-2,0.01
			c-2.17,0.01-3.93,1.78-3.93,3.94v2.54c0,1.56,0.76,3.03,2,3.96v0.87l-1.67,0.67c-0.17-0.29-0.38-0.56-0.62-0.8
			c-0.74-0.74-1.73-1.15-2.78-1.15c0,0-0.01,0-0.01,0l-2,0.01c-1.44,0.01-2.7,0.79-3.38,1.95l-1.68-0.67v-0.87
			c1.25-0.93,2-2.4,2-3.96v-2.55c0-1.06-0.41-2.05-1.16-2.79c-0.74-0.74-1.73-1.15-2.78-1.15c0,0-0.01,0-0.01,0l-2,0.01
			c-2.17,0.01-3.93,1.78-3.93,3.94v2.54c0,1.56,0.76,3.03,2,3.96v0.87l-1.67,0.67c-0.17-0.29-0.38-0.56-0.62-0.8
			c-0.74-0.74-1.73-1.15-2.78-1.15c0,0-0.01,0-0.01,0l-2,0.01c-2.17,0.01-3.93,1.78-3.93,3.94v2.54c0,1.56,0.76,3.03,2,3.96v0.87
			l-2.53,1.01c-1.51,0.6-2.48,2.04-2.48,3.66v5.98c0,0.52,0.42,0.94,0.94,0.94s0.94-0.42,0.94-0.94v-5.98c0-0.85,0.51-1.6,1.3-1.92
			l2.95-1.18h3.65l2.95,1.18c0.79,0.32,1.3,1.07,1.3,1.92v5.98c0,0.52,0.42,0.94,0.94,0.94s0.94-0.42,0.94-0.94v-5.98
			c0-1.62-0.97-3.06-2.48-3.66l-2.53-1.01v-0.87c1.25-0.93,2-2.4,2-3.96v-2.55c0-0.06,0-0.12,0-0.19l2.25-0.9h3.65l2.25,0.9
			c0,0.06,0,0.13,0,0.19v2.54c0,1.56,0.76,3.03,2,3.96v0.87l-2.53,1.01c-1.51,0.6-2.48,2.04-2.48,3.66v5.98
			c0,0.52,0.42,0.94,0.94,0.94s0.94-0.42,0.94-0.94v-5.98c0-0.85,0.51-1.6,1.3-1.92l2.95-1.18h3.65l2.95,1.18
			c0.79,0.32,1.3,1.07,1.3,1.92v5.98c0,0.52,0.42,0.94,0.94,0.94s0.94-0.42,0.94-0.94v-5.98c0-1.62-0.97-3.06-2.48-3.66l-2.53-1.01
			v-0.87c1.25-0.93,2-2.4,2-3.96v-2.55c0-0.06,0-0.12,0-0.19l2.25-0.9h3.65l2.25,0.9c0,0.06,0,0.13,0,0.19v2.54
			c0,1.56,0.76,3.03,2,3.96v0.87l-2.53,1.01c-1.51,0.6-2.48,2.04-2.48,3.66v5.98c0,0.52,0.42,0.94,0.94,0.94s0.94-0.42,0.94-0.94
			v-5.98c0-0.85,0.51-1.6,1.3-1.92l2.95-1.18h3.65l2.95,1.18c0.79,0.32,1.3,1.07,1.3,1.92v5.98c0,0.52,0.42,0.94,0.94,0.94
			s0.94-0.42,0.94-0.94v-5.98C57.99,55.46,57.02,54.02,55.51,53.42z M17.03,47.59c0,1.09-0.58,2.08-1.54,2.64
			c-0.29,0.17-0.47,0.48-0.47,0.81v1.07H12.9v-1.07c0-0.33-0.18-0.64-0.47-0.81c-0.96-0.56-1.54-1.55-1.54-2.64v-2.54
			c0-1.14,0.92-2.06,2.06-2.07l2-0.01c0.55,0,1.08,0.21,1.47,0.6c0.39,0.39,0.61,0.91,0.61,1.47V47.59z M24.52,40.2
			c-0.29,0.17-0.47,0.48-0.47,0.81v1.07h-2.13v-1.07c0-0.33-0.18-0.64-0.47-0.81c-0.96-0.56-1.54-1.55-1.54-2.64v-2.54
			c0-1.14,0.92-2.06,2.06-2.07l2-0.01c0,0,0.01,0,0.01,0c0.55,0,1.07,0.21,1.46,0.6c0.39,0.39,0.61,0.91,0.61,1.47v2.55
			C26.05,38.65,25.48,39.64,24.52,40.2z M33.53,50.23c-0.29,0.17-0.47,0.48-0.47,0.81v1.07h-2.13v-1.07c0-0.33-0.18-0.64-0.47-0.81
			c-0.96-0.56-1.54-1.55-1.54-2.64v-2.54c0-1.14,0.92-2.06,2.06-2.07l2-0.01c0,0,0.01,0,0.01,0c0.55,0,1.07,0.21,1.46,0.6
			c0.39,0.39,0.61,0.91,0.61,1.47v2.55h0C35.07,48.68,34.5,49.67,33.53,50.23z M42.55,40.2c-0.29,0.17-0.47,0.48-0.47,0.81v1.07
			h-2.13v-1.07c0-0.33-0.18-0.64-0.47-0.81c-0.96-0.56-1.54-1.55-1.54-2.64v-2.54c0-1.14,0.92-2.06,2.06-2.07l2-0.01
			c0,0,0.01,0,0.01,0c0.55,0,1.07,0.21,1.46,0.6c0.39,0.39,0.61,0.91,0.61,1.47v2.55C44.09,38.65,43.51,39.64,42.55,40.2z
			 M51.57,50.23c-0.29,0.17-0.47,0.48-0.47,0.81v1.07h-2.13v-1.07c0-0.33-0.18-0.64-0.47-0.81c-0.96-0.56-1.54-1.55-1.54-2.64v-2.54
			c0-1.14,0.92-2.06,2.06-2.07l2-0.01c0.56,0,1.08,0.21,1.47,0.6c0.39,0.39,0.61,0.91,0.61,1.47v2.55
			C53.11,48.68,52.53,49.67,51.57,50.23z"/>
	</g>
</g>
<g>
	<g>
		<path fill="#0073AA" d="M42.82,17.48c-0.17-0.28-0.47-0.44-0.8-0.44h-3.07V15.2c0-1.12-0.62-2.13-1.63-2.63l-2.35-1.17
			c-0.02-0.01-0.04-0.03-0.04-0.06V9.96c0-0.01,0-0.02,0-0.03c1.22-0.9,2.01-2.35,2.01-3.97v-2C36.95,1.77,35.18,0,33,0h-2
			c-2.17,0-3.94,1.77-3.94,3.94v2c0,1.63,0.79,3.07,2.01,3.97c0,0.01,0,0.02,0,0.03v1.38c0,0.02-0.01,0.05-0.04,0.06l-2.35,1.17
			c-1,0.5-1.63,1.51-1.63,2.63v1.83h-3.07c-0.32,0-0.63,0.17-0.8,0.44S21,18.1,21.14,18.39l2,4.01c0.16,0.32,0.48,0.52,0.84,0.52
			h1.07v6.08c0,0.52,0.42,0.94,0.94,0.94s0.94-0.42,0.94-0.94v-6.08h10.15v6.08c0,0.52,0.42,0.94,0.94,0.94s0.94-0.42,0.94-0.94
			v-6.08h1.07c0.36,0,0.68-0.2,0.84-0.52l2-4.01C43,18.1,42.99,17.76,42.82,17.48z M28.93,5.95v-2c0-1.14,0.93-2.07,2.07-2.07h2
			c1.14,0,2.07,0.93,2.07,2.07v2c0,1.69-1.38,3.07-3.07,3.07C30.31,9.02,28.93,7.64,28.93,5.95z M33.33,12.31l-1.28,1.28
			c-0.03,0.03-0.07,0.03-0.09,0l-1.28-1.28c0.17-0.29,0.26-0.62,0.26-0.97v-0.56c0.34,0.08,0.7,0.12,1.07,0.12
			c0.37,0,0.72-0.04,1.07-0.12v0.56C33.07,11.69,33.16,12.02,33.33,12.31z M26.93,15.2L26.93,15.2c0-0.41,0.23-0.77,0.59-0.95
			l1.63-0.81l1.49,1.49c0.38,0.38,0.87,0.57,1.37,0.57c0.5,0,0.99-0.19,1.37-0.57l1.49-1.49l1.63,0.81
			c0.36,0.18,0.59,0.55,0.59,0.95v1.83H26.93L26.93,15.2L26.93,15.2z M39.44,21.04H24.56l-1.07-2.13H40.5L39.44,21.04z"/>
	</g>
</g>
<g>
	<g>
		<path fill="#0073AA" d="M34,25.05H30c-0.52,0-0.94,0.42-0.94,0.94s0.42,0.94,0.94,0.94H34c0.52,0,0.94-0.42,0.94-0.94
			S34.52,25.05,34,25.05z"/>
	</g>
</g>
</svg>
