<?xml version="1.0" encoding="utf-8"?>
<!-- Generator: Adobe Illustrator 23.0.6, SVG Export Plug-In . SVG Version: 6.00 Build 0)  -->
<svg version="1.1" id="Layer_1" xmlns="http://www.w3.org/2000/svg" xmlns:xlink="http://www.w3.org/1999/xlink" x="0px" y="0px"
	 viewBox="0 0 64 64" enable-background="new 0 0 64 64" xml:space="preserve">
<path fill="#0073AA" d="M11.54,8.54c0-1.73-1.41-3.14-3.14-3.14S5.25,6.8,5.25,8.54s1.41,3.14,3.14,3.14
	C10.13,11.68,11.54,10.27,11.54,8.54z M8.39,9.81c-0.7,0-1.27-0.57-1.27-1.27s0.57-1.27,1.27-1.27c0.7,0,1.27,0.57,1.27,1.27
	S9.09,9.81,8.39,9.81z"/>
<path fill="#0073AA" d="M15.86,11.68c1.73,0,3.14-1.41,3.14-3.14s-1.41-3.14-3.14-3.14c-1.73,0-3.14,1.41-3.14,3.14
	S14.13,11.68,15.86,11.68z M15.86,7.27c0.7,0,1.27,0.57,1.27,1.27s-0.57,1.27-1.27,1.27c-0.7,0-1.27-0.57-1.27-1.27
	S15.16,7.27,15.86,7.27z"/>
<path fill="#0073AA" d="M23.33,11.68c1.73,0,3.14-1.41,3.14-3.14s-1.41-3.14-3.14-3.14c-1.73,0-3.14,1.41-3.14,3.14
	S21.6,11.68,23.33,11.68z M23.33,7.27c0.7,0,1.27,0.57,1.27,1.27s-0.57,1.27-1.27,1.27c-0.7,0-1.27-0.57-1.27-1.27
	S22.63,7.27,23.33,7.27z"/>
<path fill="#0073AA" d="M33.71,9.47h22.83c0.52,0,0.94-0.42,0.94-0.94c0-0.52-0.42-0.94-0.94-0.94H33.71
	c-0.52,0-0.94,0.42-0.94,0.94C32.77,9.05,33.19,9.47,33.71,9.47z"/>
<path fill="#0073AA" d="M60.09,2.01H3.91C1.75,2.01,0,3.77,0,5.92v52.16c0,2.16,1.76,3.91,3.91,3.91h56.17
	c2.16,0,3.91-1.76,3.91-3.91V5.92C64,3.76,62.24,2.01,60.09,2.01z M60.09,60.12H3.91c-1.12,0-2.04-0.92-2.04-2.04V15.07H7.1
	c0.52,0,0.94-0.42,0.94-0.94c0-0.52-0.42-0.94-0.94-0.94H1.88V5.92c0-1.12,0.92-2.04,2.04-2.04h56.17c1.12,0,2.04,0.92,2.04,2.04
	v7.27H10.6c-0.52,0-0.94,0.42-0.94,0.94c0,0.52,0.42,0.94,0.94,0.94h51.52v43.01C62.13,59.2,61.21,60.12,60.09,60.12z"/>
<path fill="#0073AA" d="M22.58,20.39c-1.17-1.37-3.3-1.37-4.47,0L9.53,30.44c-0.78,0.92-0.93,2.2-0.37,3.27l3.02,5.78
	c-0.98,0.5-1.65,1.51-1.65,2.68v0.72c0,1.65,1.35,3,3,3h0.02v6.1c0,2.35,1.91,4.26,4.26,4.26h5.07c2.35,0,4.26-1.91,4.26-4.26v-0.7
	c0-0.52-0.42-0.94-0.94-0.94c-0.52,0-0.94,0.42-0.94,0.94v0.7c0,1.31-1.07,2.38-2.38,2.38h-5.07c-1.31,0-2.38-1.07-2.38-2.38v-6.1
	h9.83v2.19c0,0.52,0.42,0.94,0.94,0.94s0.94-0.42,0.94-0.94v-2.19h0.02c1.65,0,3-1.35,3-3v-0.72c0-1.17-0.67-2.18-1.65-2.68
	l3.02-5.78c0.56-1.07,0.41-2.35-0.37-3.27L22.58,20.39z M20.18,30.07c0.06,0.01,0.11,0.02,0.17,0.02c0.06,0,0.12-0.01,0.17-0.02
	c0.8,0.09,1.42,0.76,1.42,1.58c0,0.88-0.71,1.59-1.59,1.59c-0.88,0-1.59-0.71-1.59-1.59C18.76,30.83,19.38,30.15,20.18,30.07z
	 M28.29,42.88c0,0.62-0.5,1.13-1.13,1.13H13.54c-0.62,0-1.13-0.5-1.13-1.13v-0.72c0-0.62,0.5-1.13,1.13-1.13h13.63
	c0.62,0,1.13,0.5,1.13,1.13V42.88z M29.87,32.84l-3.31,6.33H14.13l-3.31-6.33c-0.2-0.39-0.15-0.85,0.13-1.18l8.45-9.9v6.55
	c-1.46,0.41-2.53,1.75-2.53,3.34c0,1.91,1.55,3.46,3.46,3.46c1.91,0,3.46-1.55,3.46-3.46c0-1.59-1.07-2.93-2.53-3.34v-6.55l8.45,9.9
	C30.02,31.99,30.07,32.45,29.87,32.84z"/>
<path fill="#0073AA" d="M46.78,20.36c-0.83-0.76-2.12-0.76-2.95,0c-3.13,2.89-8.39,8.36-8.39,12.52c0,2.34,0.85,4.6,2.33,6.36
	c-1.31,0.32-2.28,1.51-2.28,2.91v0.72c0,1.65,1.35,3,3,3h0.02v6.1c0,2.35,1.91,4.26,4.26,4.26h5.07c2.35,0,4.26-1.91,4.26-4.26v-0.7
	c0-0.52-0.42-0.94-0.94-0.94s-0.94,0.42-0.94,0.94v0.7c0,1.31-1.07,2.38-2.38,2.38h-5.07c-1.31,0-2.38-1.07-2.38-2.38v-6.1h9.83
	v2.19c0,0.52,0.42,0.94,0.94,0.94s0.94-0.42,0.94-0.94v-2.19h0.02c1.65,0,3-1.35,3-3v-0.72c0-1.41-0.97-2.59-2.28-2.91
	c1.49-1.76,2.33-4.02,2.33-6.36C55.17,28.72,49.92,23.25,46.78,20.36z M45.11,21.74c0.12-0.11,0.29-0.11,0.41,0
	c3.76,3.47,7.78,8.23,7.78,11.15c0,2.44-1.13,4.77-3.05,6.27h-9.87c-1.91-1.51-3.05-3.83-3.05-6.27
	C37.32,29.96,41.34,25.21,45.11,21.74z M53.25,42.16v0.72c0,0.62-0.5,1.13-1.13,1.13H38.5c-0.62,0-1.13-0.5-1.13-1.13v-0.72
	c0-0.62,0.5-1.13,1.13-1.13h13.63C52.74,41.04,53.25,41.54,53.25,42.16z"/>
</svg>
