<?xml version="1.0" encoding="utf-8"?>
<!-- Generator: Adobe Illustrator 23.0.6, SVG Export Plug-In . SVG Version: 6.00 Build 0)  -->
<svg version="1.1" id="Layer_1" xmlns="http://www.w3.org/2000/svg" xmlns:xlink="http://www.w3.org/1999/xlink" x="0px" y="0px"
	 viewBox="0 0 64 64" enable-background="new 0 0 64 64" xml:space="preserve">
<path fill="#0073AA" d="M11.54,8.54c0-1.73-1.41-3.14-3.14-3.14S5.25,6.8,5.25,8.54c0,1.73,1.41,3.14,3.14,3.14
	C10.13,11.68,11.54,10.27,11.54,8.54z M7.13,8.54c0-0.7,0.57-1.27,1.27-1.27s1.27,0.57,1.27,1.27c0,0.7-0.57,1.27-1.27,1.27
	S7.13,9.24,7.13,8.54z"/>
<path fill="#0073AA" d="M15.86,11.68c1.73,0,3.14-1.41,3.14-3.14c0-1.73-1.41-3.14-3.14-3.14s-3.14,1.41-3.14,3.14
	C12.72,10.27,14.13,11.68,15.86,11.68z M15.86,7.27c0.7,0,1.27,0.57,1.27,1.27c0,0.7-0.57,1.27-1.27,1.27S14.6,9.24,14.6,8.54
	C14.6,7.84,15.16,7.27,15.86,7.27z"/>
<path fill="#0073AA" d="M23.33,11.68c1.73,0,3.14-1.41,3.14-3.14c0-1.73-1.41-3.14-3.14-3.14c-1.73,0-3.14,1.41-3.14,3.14
	C20.19,10.27,21.6,11.68,23.33,11.68z M23.33,7.27c0.7,0,1.27,0.57,1.27,1.27c0,0.7-0.57,1.27-1.27,1.27c-0.7,0-1.27-0.57-1.27-1.27
	C22.06,7.84,22.63,7.27,23.33,7.27z"/>
<path fill="#0073AA" d="M33.71,9.47h22.83c0.52,0,0.94-0.42,0.94-0.94c0-0.52-0.42-0.94-0.94-0.94H33.71
	c-0.52,0-0.94,0.42-0.94,0.94C32.77,9.05,33.19,9.47,33.71,9.47z"/>
<path fill="#0073AA" d="M60.09,2.01H3.91C1.76,2.01,0,3.76,0,5.92v52.16c0,2.16,1.76,3.91,3.91,3.91h56.17
	c2.16,0,3.91-1.76,3.91-3.91V5.92C64,3.76,62.24,2.01,60.09,2.01z M60.09,60.12H3.91c-1.12,0-2.04-0.92-2.04-2.04V15.07H7.1
	c0.52,0,0.94-0.42,0.94-0.94c0-0.52-0.42-0.94-0.94-0.94H1.88V5.92c0-1.12,0.92-2.04,2.04-2.04h56.17c1.12,0,2.04,0.92,2.04,2.04
	v7.27H10.6c-0.52,0-0.94,0.42-0.94,0.94c0,0.52,0.42,0.94,0.94,0.94h51.52v43.01C62.13,59.2,61.21,60.12,60.09,60.12z"/>
<path fill="#0073AA" d="M26.47,28.24H7.7c-1.75,0-3.18,1.42-3.18,3.18v22.36c0,1.75,1.42,3.18,3.18,3.18h18.77
	c1.75,0,3.18-1.42,3.18-3.18V31.42C29.65,29.67,28.22,28.24,26.47,28.24z M27.77,53.78c0,0.72-0.58,1.3-1.3,1.3H7.7
	c-0.72,0-1.3-0.58-1.3-1.3V31.42c0-0.72,0.58-1.3,1.3-1.3h18.77c0.72,0,1.3,0.58,1.3,1.3V53.78z"/>
<path fill="#0073AA" d="M16.31,36.51L5.59,46.99c-0.37,0.36-0.38,0.96-0.01,1.33c0.36,0.37,0.96,0.38,1.33,0.01l10.72-10.48
	c0.37-0.36,0.38-0.96,0.01-1.33C17.27,36.16,16.68,36.15,16.31,36.51z"/>
<path fill="#0073AA" d="M29.18,46.2l-11.45-9.67c-0.4-0.33-0.99-0.28-1.32,0.11c-0.33,0.4-0.28,0.99,0.11,1.32l11.45,9.67
	c0.4,0.33,0.99,0.28,1.32-0.11C29.62,47.13,29.57,46.53,29.18,46.2z"/>
<path fill="#0073AA" d="M56.3,28.24H37.53c-1.75,0-3.18,1.42-3.18,3.18v22.36c0,1.75,1.42,3.18,3.18,3.18H56.3
	c1.75,0,3.18-1.42,3.18-3.18V31.42C59.47,29.67,58.05,28.24,56.3,28.24z M57.6,53.78c0,0.72-0.58,1.3-1.3,1.3H37.53
	c-0.72,0-1.3-0.58-1.3-1.3V31.42c0-0.72,0.58-1.3,1.3-1.3H56.3c0.72,0,1.3,0.58,1.3,1.3V53.78z"/>
<path fill="#0073AA" d="M54.41,32.56H42.84c-0.52,0-0.94,0.42-0.94,0.94s0.42,0.94,0.94,0.94h11.57c0.52,0,0.94-0.42,0.94-0.94
	S54.92,32.56,54.41,32.56z"/>
<path fill="#0073AA" d="M54.41,38.1H39.42c-0.52,0-0.94,0.42-0.94,0.94c0,0.52,0.42,0.94,0.94,0.94h14.99
	c0.52,0,0.94-0.42,0.94-0.94C55.34,38.52,54.92,38.1,54.41,38.1z"/>
<path fill="#0073AA" d="M54.41,43.65H39.42c-0.52,0-0.94,0.42-0.94,0.94c0,0.52,0.42,0.94,0.94,0.94h14.99
	c0.52,0,0.94-0.42,0.94-0.94C55.34,44.07,54.92,43.65,54.41,43.65z"/>
<path fill="#0073AA" d="M54.41,49.19H39.42c-0.52,0-0.94,0.42-0.94,0.94s0.42,0.94,0.94,0.94h14.99c0.52,0,0.94-0.42,0.94-0.94
	S54.92,49.19,54.41,49.19z"/>
<path fill="#0073AA" d="M56.83,17.77H7.17c-1.46,0-2.64,1.18-2.64,2.64v1.87c0,1.46,1.18,2.64,2.64,2.64h41.46
	c0.52,0,0.94-0.42,0.94-0.94s-0.42-0.94-0.94-0.94H7.17c-0.42,0-0.77-0.34-0.77-0.77v-1.87c0-0.42,0.34-0.77,0.77-0.77h49.66
	c0.42,0,0.77,0.34,0.77,0.77v1.87c0,0.42-0.34,0.77-0.77,0.77h-4.71c-0.52,0-0.94,0.42-0.94,0.94s0.42,0.94,0.94,0.94h4.71
	c1.46,0,2.64-1.18,2.64-2.64v-1.87C59.47,18.96,58.29,17.77,56.83,17.77z"/>
<g>
	<path fill="#0073AA" d="M23.14,41.1l2.71-2.65c0.37-0.36,0.38-0.96,0.02-1.33c-0.36-0.37-0.96-0.38-1.33-0.01l-2.84,2.77
		L23.14,41.1z"/>
</g>
<g>
	<path fill="#0073AA" d="M25.95,37.13c-0.4-0.33-0.99-0.28-1.32,0.11c-0.33,0.4-0.28,0.99,0.11,1.32l3.03,2.56v-2.45L25.95,37.13z"
		/>
</g>
</svg>
