<?xml version="1.0" encoding="utf-8"?>
<!-- Generator: Adobe Illustrator 23.0.6, SVG Export Plug-In . SVG Version: 6.00 Build 0)  -->
<svg version="1.1" id="Layer_1" xmlns="http://www.w3.org/2000/svg" xmlns:xlink="http://www.w3.org/1999/xlink" x="0px" y="0px"
	 viewBox="0 0 64 64" enable-background="new 0 0 64 64" xml:space="preserve">
<g>
	<g>
		<path fill="#0073AA" d="M50.46,15.13c-2.18-1.09-6.26-1.1-6.43-1.1c-0.52,0-0.94,0.42-0.94,0.94s0.42,0.94,0.94,0.94
			c1.05,0,4.11,0.16,5.59,0.9c0.13,0.07,0.28,0.1,0.42,0.1c0.34,0,0.67-0.19,0.84-0.52C51.11,15.92,50.92,15.36,50.46,15.13z"/>
	</g>
</g>
<g>
	<g>
		<path fill="#0073AA" d="M63.06,43.09H57.4c0.37-0.6,0.59-1.31,0.59-2.07v-8.75c0-1.75-1.18-3.31-2.86-3.79l-3.38-0.97
			c-0.46-0.13-0.77-0.55-0.77-1.03l0-0.78c0.31-0.22,0.62-0.46,0.9-0.73c1.36-1.32,2.11-3.09,2.11-4.99v-1.78l0.37-0.75
			c0.41-0.82,0.63-1.74,0.63-2.66V9.96c0-0.52-0.42-0.94-0.94-0.94h-9.02c-3.28,0-5.95,2.67-5.95,5.95v0.06
			c0,0.76,0.18,1.53,0.52,2.21l0.48,0.96v1.53c0,2.43,1.2,4.6,3.01,5.91v0.84c0,0.47-0.32,0.9-0.77,1.03l-3.38,0.97
			c-1.68,0.48-2.86,2.04-2.86,3.79v0.8h-0.06c-1.07,0-1.94,0.87-1.94,1.94v8.02c0,0.02,0,0.04,0,0.06h-4.14c0-0.02,0-0.04,0-0.06
			v-8.02c0-1.07-0.87-1.94-1.94-1.94h-2.07c-0.01-1.49-0.84-2.83-2.18-3.5l-2.42-1.21c1.42-0.33,2.48-0.73,3.19-1.06
			c0.93-0.43,1.36-1.48,1-2.45c-0.82-2.22-1.47-6.1-1.6-7.94c-0.32-4.5-3.74-7.89-7.95-7.89s-7.63,3.39-7.95,7.89
			c-0.13,1.84-0.78,5.72-1.6,7.94c-0.36,0.97,0.07,2.02,1,2.45c0.71,0.33,1.77,0.73,3.19,1.06l-2.42,1.21
			c-1.34,0.67-2.18,2.02-2.18,3.53v7.93c0,0.76,0.22,1.47,0.59,2.07H0.94C0.42,43.09,0,43.51,0,44.02s0.42,0.94,0.94,0.94H2v9.08
			c0,0.52,0.42,0.94,0.94,0.94s0.94-0.42,0.94-0.94v-5.07h56.24v5.07c0,0.52,0.42,0.94,0.94,0.94S62,54.56,62,54.04v-9.08h1.07
			c0.52,0,0.94-0.42,0.94-0.94C64,43.51,63.58,43.09,63.06,43.09z M41.96,19.72v-1.75c0-0.15-0.03-0.29-0.1-0.42l-0.58-1.16
			c-0.21-0.42-0.32-0.9-0.32-1.37v-0.06c0-2.25,1.83-4.07,4.07-4.07h8.08v3.89c0,0.63-0.15,1.26-0.43,1.82l-0.47,0.95
			c-0.07,0.13-0.1,0.27-0.1,0.42v2c0,1.38-0.55,2.68-1.54,3.64c-0.99,0.96-2.31,1.47-3.69,1.43C44.16,24.97,41.96,22.58,41.96,19.72
			z M49.26,27.44l-0.77,0.77c-0.39,0.39-0.91,0.61-1.46,0.61c-0.55,0-1.07-0.22-1.46-0.61l-0.77-0.77c0.09-0.27,0.15-0.55,0.16-0.85
			c0.59,0.19,1.21,0.31,1.86,0.33c0.07,0,0.14,0,0.22,0c0.71,0,1.41-0.11,2.07-0.31C49.12,26.9,49.17,27.18,49.26,27.44z
			 M37.95,32.26L37.95,32.26c0-0.92,0.62-1.74,1.5-1.99l3.38-0.97c0.29-0.08,0.56-0.21,0.81-0.38l0.6,0.6
			c0.74,0.74,1.74,1.16,2.79,1.16s2.04-0.41,2.79-1.16l0.6-0.6c0.25,0.16,0.52,0.29,0.81,0.38l3.38,0.97
			c0.88,0.25,1.5,1.07,1.5,1.99v8.75c0,1.14-0.93,2.07-2.07,2.07h-4.08c0-0.02,0-0.04,0-0.06v-2.07h3.07c0.52,0,0.94-0.42,0.94-0.94
			V34c0-0.52-0.42-0.94-0.94-0.94S52.1,33.49,52.1,34v5.07h-2.13v-4.07c0-1.07-0.87-1.94-1.94-1.94H37.95V32.26z M35.94,35.01
			c0-0.04,0.03-0.06,0.06-0.06h12.02c0.04,0,0.06,0.03,0.06,0.06v8.02c0,0.04-0.03,0.06-0.06,0.06H36.01
			c-0.04,0-0.06-0.03-0.06-0.06V35.01z M27.99,34.94c0.04,0,0.06,0.03,0.06,0.06v8.02c0,0.04-0.03,0.06-0.06,0.06H15.97
			c-0.04,0-0.06-0.03-0.06-0.06v-8.02c0-0.04,0.03-0.06,0.06-0.06H27.99z M23.76,25.5c0,0.01,0.02,0.07-0.03,0.1
			c-0.78,0.36-2.04,0.83-3.82,1.14l0-1.03c1.38-0.95,2.4-2.39,2.81-4.09C23,23.02,23.36,24.42,23.76,25.5z M9.89,17.04
			c0.12-1.68,0.79-3.24,1.89-4.37c1.11-1.14,2.6-1.77,4.18-1.77s3.07,0.63,4.18,1.77c1.1,1.13,1.77,2.69,1.89,4.37
			c0.04,0.59,0.13,1.37,0.26,2.22c-1.01-1.72-2.65-2.97-4.8-3.67c-1.88-0.6-3.5-0.57-3.56-0.56c-0.25,0.01-0.48,0.11-0.65,0.29
			l-1.69,1.75c-0.36,0.37-0.35,0.97,0.02,1.33s0.97,0.35,1.33-0.02l1.41-1.46c0.52,0.03,1.53,0.12,2.63,0.48
			c1.93,0.63,3.27,1.76,4,3.37c-0.38,2.46-2.5,4.29-5.01,4.29c-2.8,0-5.07-2.28-5.07-5.07c0-0.52-0.42-0.94-0.94-0.94
			c-0.11,0-0.21,0.02-0.3,0.05C9.77,18.3,9.85,17.59,9.89,17.04z M18.26,28.52l-0.87,0.83c-0.8,0.76-2.05,0.76-2.85,0l-0.87-0.83
			c0.15-0.28,0.23-0.59,0.23-0.92v-1c0.65,0.2,1.35,0.31,2.07,0.31c0.72,0,1.41-0.11,2.07-0.31l0,1
			C18.04,27.94,18.12,28.25,18.26,28.52z M8.2,25.59c-0.05-0.02-0.03-0.08-0.03-0.1c0.4-1.08,0.75-2.48,1.04-3.88
			c0.41,1.68,1.43,3.12,2.81,4.08v1.03C10.25,26.42,8.98,25.95,8.2,25.59z M7.89,33.09c0-0.79,0.44-1.5,1.14-1.85l3.13-1.57
			l1.09,1.03c0.76,0.72,1.74,1.09,2.72,1.09c0.98,0,1.95-0.36,2.72-1.09l1.09-1.03l3.13,1.57c0.7,0.35,1.13,1.05,1.14,1.82h-8.08
			c-1.07,0-1.94,0.87-1.94,1.94v4.07H11.9v-3.84c0-0.52-0.42-0.94-0.94-0.94s-0.94,0.42-0.94,0.94v4.77c0,0.52,0.42,0.94,0.94,0.94
			h3.07v2.07c0,0.02,0,0.04,0,0.06H9.96c-1.14,0-2.07-0.93-2.07-2.07C7.89,41.02,7.89,33.09,7.89,33.09z M60.12,47.09H3.88v-2.13
			h56.24L60.12,47.09L60.12,47.09z"/>
	</g>
</g>
<g>
	<g>
		<path fill="#0073AA" d="M22.98,38.08h-2c-0.52,0-0.94,0.42-0.94,0.94s0.42,0.94,0.94,0.94h2c0.52,0,0.94-0.42,0.94-0.94
			S23.5,38.08,22.98,38.08z"/>
	</g>
</g>
<g>
	<g>
		<path fill="#0073AA" d="M42.03,38.08L42.03,38.08c-0.53,0-0.94,0.42-0.94,0.94s0.42,0.94,0.94,0.94s0.94-0.42,0.94-0.94
			C42.96,38.5,42.54,38.08,42.03,38.08z"/>
	</g>
</g>
</svg>
