<?xml version="1.0" encoding="utf-8"?>
<!-- Generator: Adobe Illustrator 23.0.6, SVG Export Plug-In . SVG Version: 6.00 Build 0)  -->
<svg version="1.1" id="Layer_1" xmlns="http://www.w3.org/2000/svg" xmlns:xlink="http://www.w3.org/1999/xlink" x="0px" y="0px"
	 viewBox="0 0 64 64" enable-background="new 0 0 64 64" xml:space="preserve">
<g>
	<path fill="#0073AA" d="M42.95,52v-5.05c0-0.53-0.43-0.96-0.95-0.96H22c-0.52,0-0.95,0.43-0.95,0.96V52c0,0.53,0.43,0.96,0.95,0.96
		h20C42.52,52.96,42.95,52.53,42.95,52z M41.05,51.04h-18.1v-3.13h18.1V51.04z"/>
	<path fill="#0073AA" d="M27,56.09c-0.52,0-0.95,0.43-0.95,0.96c0,0.53,0.43,0.96,0.95,0.96h10c0.52,0,0.95-0.43,0.95-0.96
		c0-0.53-0.43-0.96-0.95-0.96H27z"/>
	<path fill="#0073AA" d="M49.12,12.37h-7.19l1.27-2.23c0.27-0.48,0.08-1.1-0.43-1.33l0,0c-0.45-0.21-0.98-0.04-1.23,0.39l-4.81,8.47
		H30.6l8.94-15.75h6.14l-1.67,2.94c-0.27,0.48-0.08,1.1,0.43,1.33c0.45,0.21,0.98,0.04,1.23-0.39l2.47-4.36
		c0.17-0.3,0.17-0.66,0-0.96C47.97,0.18,47.65,0,47.32,0H39c-0.34,0-0.66,0.18-0.83,0.48L32,11.34L25.83,0.48
		C25.66,0.18,25.35,0,25,0h-8.32c-0.34,0-0.65,0.18-0.82,0.48c-0.17,0.29-0.17,0.66,0,0.96l6.21,10.93h-7.19
		c-1.9,0-3.45,1.56-3.45,3.48v29.71c0,0.52,0.43,0.95,0.95,0.95s0.95-0.43,0.95-0.95V15.85c0-0.86,0.7-1.56,1.56-1.56h15.44
		l-1.92,3.38h-2.99c-0.52,0-0.95,0.43-0.95,0.96s0.43,0.96,0.95,0.96h13.16c0.52,0,0.95-0.43,0.95-0.96c0-0.31-0.15-0.6-0.4-0.78
		l-0.22-0.16l1.93-3.4h8.28c0.86,0,1.55,0.69,1.55,1.55v44.7c0,0.85-0.7,1.55-1.55,1.55H14.88c-0.86,0-1.55-0.69-1.55-1.55v-8.27
		c0-0.52-0.43-0.95-0.95-0.95s-0.95,0.43-0.95,0.95v8.26c0,1.92,1.55,3.48,3.45,3.48h34.25c1.9,0,3.45-1.56,3.45-3.48V15.85
		C52.58,13.93,51.03,12.37,49.12,12.37z M24.26,12.37L18.32,1.92h6.14l5.93,10.45H24.26z"/>
	<path fill="#0073AA" d="M24,20.95c-1.12,0-1.93,0.58-1.93,1.38V23h-0.12l-0.44,0.04v4.24h-3.47l-0.44,0.04v4.88l0.04,0.44h0.52
		v9.98l0.04,0.44H45.4l0.44-0.04V32.63h0.12l0.44-0.04v-4.88l-0.04-0.44h-3.87v-3.84L42.45,23h-0.52v-0.67
		c0-0.8-0.81-1.38-1.93-1.38s-1.93,0.58-1.93,1.38V23H25.93v-0.67C25.93,21.53,25.12,20.95,24,20.95z M25.96,41.85
		c-1.2-1.2-2.06-2.76-2.38-4.56c-0.21-1.19-0.16-2.36,0.1-3.46c0.01-0.03,0.05-0.04,0.07-0.01l4.64,8.03H25.96z M31.43,41.85
		l0.83-5.22c0.01-0.04,0.05-0.04,0.07-0.01l3.03,5.24H31.43z M37.12,40.05c0,0.04-0.05,0.05-0.07,0.01l-4.55-8.36
		c-0.01-0.02,0-0.05,0.03-0.06c0.48-0.11,0.9-0.24,0.9-0.24c0.44-0.13,0.27-0.79-0.18-0.68c0,0-1.34,0.35-2.22,0.5
		c-0.83,0.15-2.24,0.28-2.24,0.28c-0.46,0.05-0.39,0.76,0.07,0.7c0,0,0.42-0.02,0.87-0.07c0.02,0,0.03,0.01,0.04,0.02l1.93,3.33
		c0,0.01,0.01,0.02,0,0.03l-0.85,5.72c-0.01,0.04-0.05,0.05-0.07,0.01l-4.59-8.43c-0.01-0.02,0-0.05,0.03-0.06
		c0.48-0.11,0.9-0.24,0.9-0.24c0.44-0.13,0.27-0.79-0.18-0.68c0,0-1.34,0.35-2.22,0.5c-0.14,0.02-0.3,0.05-0.47,0.08
		c-0.03,0-0.05-0.03-0.04-0.05c0.07-0.16,0.16-0.31,0.24-0.46c0.15-0.28,0.31-0.56,0.49-0.83c0,0,0.01-0.01,0.01-0.01
		c0.17-0.26,0.36-0.51,0.56-0.75c0.01-0.02,0.03-0.03,0.04-0.05c0.19-0.22,0.39-0.44,0.6-0.64c0.04-0.03,0.08-0.07,0.11-0.1
		c0.2-0.18,0.4-0.36,0.61-0.52c0.07-0.05,0.14-0.1,0.21-0.15c0.19-0.14,0.39-0.27,0.59-0.4c0.11-0.07,0.23-0.12,0.35-0.19
		c0.18-0.09,0.35-0.19,0.53-0.27c0.17-0.08,0.36-0.14,0.53-0.2c0.14-0.05,0.28-0.11,0.42-0.16c0.33-0.1,0.68-0.19,1.03-0.25
		c2.15-0.38,4.26,0.08,5.98,1.15c0.03,0.02,0.02,0.07-0.01,0.07c0,0,0,0,0,0c-0.83,0.15-1.29,0.97-1.15,1.74
		c0.03,0.16,0.08,0.31,0.15,0.46c0.02,0.06,0.06,0.11,0.09,0.16c0.05,0.09,0.1,0.18,0.16,0.26c0.04,0.06,0.09,0.13,0.14,0.19
		c0.06,0.07,0.11,0.15,0.17,0.22c0.15,0.17,0.3,0.35,0.47,0.54c0.42,0.5,0.92,1.16,1.1,2.2c0.13,0.72,0,1.61-0.16,2.83L37.12,40.05z
		 M37.59,41.85l1.18-7.4c0.21-1.01,0.25-1.83,0.18-2.55c-0.02-0.2-0.04-0.39-0.07-0.58c-0.04-0.23-0.09-0.45-0.15-0.66
		c-0.01-0.04,0.04-0.07,0.07-0.03c0.16,0.21,0.3,0.43,0.44,0.65c0.12,0.2,0.24,0.41,0.35,0.62c0.38,0.75,0.68,1.55,0.83,2.42
		c0.5,2.86-0.49,5.62-2.4,7.53H37.59z M38.85,24.21l0.44-0.04l-0.01-1.8c0.03-0.05,0.28-0.2,0.73-0.2s0.69,0.15,0.72,0.16v1.45
		l0.04,0.44h0.52v3.84l0.04,0.44h3.87v2.92h-0.12l-0.44,0.04v10.38h-1.65l-0.4,0.02h-3.26c1.71-2.07,2.55-4.84,2.05-7.69
		c-0.14-0.8-0.39-1.55-0.71-2.26c-0.54-1.2-1.32-2.26-2.27-3.12c-0.01-0.01-0.01-0.01-0.02-0.02c-0.17-0.15-0.34-0.29-0.52-0.43
		c-0.04-0.03-0.08-0.07-0.13-0.1c-0.16-0.12-0.33-0.24-0.5-0.36c-0.06-0.04-0.12-0.08-0.19-0.12c-0.17-0.1-0.33-0.21-0.5-0.3
		c-0.07-0.04-0.15-0.07-0.22-0.11c-0.52-0.26-1.06-0.48-1.62-0.65c-0.15-0.04-0.3-0.09-0.45-0.13c-0.12-0.03-0.25-0.05-0.37-0.08
		c-0.16-0.03-0.32-0.06-0.49-0.09c-0.12-0.02-0.24-0.03-0.37-0.05c-0.17-0.02-0.35-0.03-0.53-0.04c-0.12-0.01-0.23-0.01-0.35-0.01
		c-0.2,0-0.39,0-0.59,0.01c-0.1,0-0.2,0.01-0.29,0.01c-0.3,0.02-0.6,0.06-0.9,0.11c-0.37,0.06-0.72,0.16-1.07,0.26
		c-0.11,0.03-0.21,0.07-0.32,0.11c-0.24,0.08-0.48,0.17-0.71,0.27c-0.11,0.05-0.23,0.1-0.34,0.15c-0.23,0.11-0.45,0.23-0.66,0.35
		c-0.09,0.05-0.19,0.1-0.28,0.16c-0.29,0.18-0.58,0.38-0.85,0.59c0,0-0.01,0.01-0.01,0.01c-0.28,0.22-0.54,0.46-0.8,0.71
		c-0.06,0.06-0.11,0.12-0.17,0.18c-0.19,0.2-0.37,0.4-0.54,0.61c-0.06,0.08-0.12,0.16-0.18,0.24c-0.16,0.21-0.31,0.43-0.45,0.66
		c-0.05,0.07-0.1,0.15-0.14,0.22c-1.12,1.89-1.6,4.16-1.19,6.48c0.3,1.68,1.03,3.17,2.05,4.39h-3.82v-0.02h-1.49v-9.98l-0.04-0.44
		h-0.52v-2.92h3.47l0.44-0.04v-4.24h0.12l0.44-0.04l-0.01-1.8c0.03-0.05,0.28-0.2,0.73-0.2s0.69,0.15,0.72,0.16v1.45l0.04,0.44
		H38.85z"/>
</g>
</svg>
