<?xml version="1.0" encoding="utf-8"?>
<!-- Generator: Adobe Illustrator 23.0.6, SVG Export Plug-In . SVG Version: 6.00 Build 0)  -->
<svg version="1.1" id="Layer_1" xmlns="http://www.w3.org/2000/svg" xmlns:xlink="http://www.w3.org/1999/xlink" x="0px" y="0px"
	 viewBox="0 0 64 64" enable-background="new 0 0 64 64" xml:space="preserve">
<path fill="#0073AA" d="M8.39,11.68c1.73,0,3.14-1.41,3.14-3.14s-1.41-3.14-3.14-3.14c-1.73,0-3.14,1.41-3.14,3.14
	S6.66,11.68,8.39,11.68z M8.39,7.27c0.7,0,1.27,0.57,1.27,1.27S9.09,9.81,8.39,9.81c-0.7,0-1.27-0.57-1.27-1.27S7.69,7.27,8.39,7.27
	z"/>
<path fill="#0073AA" d="M15.86,11.68c1.73,0,3.14-1.41,3.14-3.14s-1.41-3.14-3.14-3.14c-1.73,0-3.14,1.41-3.14,3.14
	S14.13,11.68,15.86,11.68z M15.86,7.27c0.7,0,1.27,0.57,1.27,1.27s-0.57,1.27-1.27,1.27c-0.7,0-1.27-0.57-1.27-1.27
	S15.16,7.27,15.86,7.27z"/>
<path fill="#0073AA" d="M23.33,11.68c1.73,0,3.14-1.41,3.14-3.14s-1.41-3.14-3.14-3.14c-1.73,0-3.14,1.41-3.14,3.14
	S21.6,11.68,23.33,11.68z M23.33,7.27c0.7,0,1.27,0.57,1.27,1.27s-0.57,1.27-1.27,1.27c-0.7,0-1.27-0.57-1.27-1.27
	S22.63,7.27,23.33,7.27z"/>
<path fill="#0073AA" d="M33.71,9.47h22.83c0.52,0,0.94-0.42,0.94-0.94S57.06,7.6,56.54,7.6H33.71c-0.52,0-0.94,0.42-0.94,0.94
	S33.19,9.47,33.71,9.47z"/>
<path fill="#0073AA" d="M60.09,2.01H3.91C1.75,2.01,0,3.77,0,5.92v52.16c0,0.22,0.02,0.43,0.05,0.64c0.01,0.03,0.01,0.06,0.02,0.1
	c0,0.02,0.01,0.03,0.01,0.05c0.37,1.78,1.95,3.13,3.83,3.13h56.17c1.89,0,3.47-1.34,3.83-3.13c0-0.02,0.01-0.03,0.01-0.05
	c0.01-0.03,0.01-0.06,0.02-0.1C63.98,58.51,64,58.3,64,58.08V5.92C64,3.77,62.25,2.01,60.09,2.01z M60.09,3.88
	c1.13,0,2.04,0.92,2.04,2.04v7.27H10.6c-0.52,0-0.94,0.42-0.94,0.94c0,0.52,0.42,0.94,0.94,0.94h51.52v31.09H1.88V15.06H7.1
	c0.52,0,0.94-0.42,0.94-0.94c0-0.52-0.42-0.94-0.94-0.94H1.88V5.92c0-1.13,0.92-2.04,2.04-2.04H60.09z M3.91,60.12
	c-0.91,0-1.69-0.6-1.95-1.43c0-0.01,0-0.02-0.01-0.02c-0.01-0.02-0.01-0.05-0.02-0.07c0-0.01,0-0.02-0.01-0.02
	c-0.01-0.02-0.01-0.05-0.02-0.07c-0.01-0.05-0.02-0.1-0.02-0.15c0-0.02,0-0.03-0.01-0.05c-0.01-0.07-0.01-0.14-0.01-0.21V48.03
	h60.25v10.04c0,0.07,0,0.14-0.01,0.21c0,0.02,0,0.03-0.01,0.05c-0.01,0.05-0.01,0.1-0.02,0.15c0,0.02-0.01,0.05-0.02,0.07
	c0,0.01,0,0.02-0.01,0.02c-0.01,0.02-0.01,0.05-0.02,0.07c0,0.01,0,0.02-0.01,0.02c-0.26,0.83-1.03,1.43-1.95,1.43H3.91z"/>
<path fill="#0073AA" d="M55.23,50.7H36.31c-1.24,0-2.25,1.01-2.25,2.25v2.25c0,1.24,1.01,2.25,2.25,2.25h18.92
	c1.24,0,2.25-1.01,2.25-2.25v-2.25C57.48,51.71,56.47,50.7,55.23,50.7z M55.6,55.2c0,0.21-0.17,0.38-0.38,0.38H36.31
	c-0.21,0-0.38-0.17-0.38-0.38v-2.25c0-0.21,0.17-0.38,0.38-0.38h18.92c0.21,0,0.38,0.17,0.38,0.38V55.2z"/>
<path fill="#0073AA" d="M26.07,38.2h15.17l2.1,6c0.13,0.38,0.49,0.63,0.89,0.63s0.75-0.25,0.88-0.63l2.1-6h1.81
	c1.9,0,3.45-1.55,3.45-3.45v-1c0-0.52-0.42-0.94-0.94-0.94c-0.52,0-0.94,0.42-0.94,0.94v1c0,0.87-0.71,1.58-1.58,1.58h-2.48
	c-0.4,0-0.75,0.25-0.89,0.63l-1.44,4.1l-1.44-4.1c-0.13-0.38-0.49-0.63-0.88-0.63H26.07c-0.87,0-1.58-0.71-1.58-1.58V22.62
	c0-0.87,0.71-1.58,1.58-1.58h22.95c0.87,0,1.58,0.71,1.58,1.58v7.63c0,0.52,0.42,0.94,0.94,0.94c0.52,0,0.94-0.42,0.94-0.94v-7.63
	c0-1.9-1.55-3.45-3.45-3.45H26.07c-1.9,0-3.45,1.55-3.45,3.45v12.13C22.62,36.65,24.17,38.2,26.07,38.2z"/>
</svg>
