<?xml version="1.0" encoding="utf-8"?>
<!-- Generator: Adobe Illustrator 23.0.6, SVG Export Plug-In . SVG Version: 6.00 Build 0)  -->
<svg version="1.1" id="Layer_1" xmlns="http://www.w3.org/2000/svg" xmlns:xlink="http://www.w3.org/1999/xlink" x="0px" y="0px"
	 viewBox="0 0 64 64" enable-background="new 0 0 64 64" xml:space="preserve">
<g>
	<g>
		<path fill="#0073AA" d="M42.34,26.92c0.8,0,1.5-0.48,1.8-1.22l3.21-8.02c0.24-0.6,0.17-1.27-0.19-1.81s-0.96-0.85-1.61-0.85h-3.59
			v-4.42c0-1.32-0.51-2.56-1.45-3.5l-1.45-1.45c0.54-1.1,0.36-2.47-0.55-3.39l-1.42-1.42c-1.15-1.15-3.01-1.15-4.16,0
			c-1.15,1.15-1.15,3.01,0,4.16l1.42,1.42c0.57,0.57,1.33,0.86,2.08,0.86c0.45,0,0.9-0.1,1.31-0.31l1.45,1.45
			c0.58,0.58,0.9,1.35,0.9,2.17v4.42H18.45c-0.64,0-1.24,0.32-1.61,0.85s-0.43,1.21-0.19,1.81l3.21,8.02c0.3,0.74,1,1.22,1.8,1.22
			h2.39v31.19h-3.07c-1.07,0-1.94,0.87-1.94,1.94v2c0,1.07,0.87,1.94,1.94,1.94h22.05c1.07,0,1.94-0.87,1.94-1.94v-2
			c0-1.07-0.87-1.94-1.94-1.94h-3.07V26.92H42.34z M37.18,5.11c-0.42,0.42-1.09,0.42-1.51,0l-1.42-1.42c-0.42-0.42-0.42-1.09,0-1.51
			c0.42-0.42,1.09-0.42,1.51,0l1.42,1.42c0.2,0.2,0.31,0.47,0.31,0.75C37.49,4.64,37.38,4.91,37.18,5.11z M37.01,22.92h1.07v35.2H31
			c-0.52,0-0.94,0.42-0.94,0.94c0,0.52,0.42,0.94,0.94,0.94h12.02c0.04,0,0.06,0.03,0.06,0.06v2c0,0.04-0.03,0.06-0.06,0.06H20.98
			c-0.04,0-0.06-0.03-0.06-0.06v-2c0-0.04,0.03-0.06,0.06-0.06h6.01c0.52,0,0.94-0.42,0.94-0.94c0-0.52-0.42-0.94-0.94-0.94h-1.07
			v-35.2H33c0.52,0,0.94-0.42,0.94-0.94c0-0.52-0.42-0.94-0.94-0.94h-8.02c-0.52,0-0.94,0.42-0.94,0.94v3.07h-2.39
			c-0.03,0-0.05-0.02-0.06-0.04l-3.21-8.02c0-0.01-0.01-0.03,0.01-0.06c0.02-0.03,0.04-0.03,0.05-0.03h27.1c0.01,0,0.03,0,0.05,0.03
			c0.02,0.03,0.01,0.05,0.01,0.06l-3.21,8.02c-0.01,0.02-0.03,0.04-0.06,0.04h-2.39v-3.07c0-0.52-0.42-0.94-0.94-0.94h-2
			c-0.52,0-0.94,0.42-0.94,0.94C36.07,22.5,36.49,22.92,37.01,22.92z"/>
	</g>
</g>
<g>
	<g>
		<path fill="#0073AA" d="M35.01,29.06h-6.01c-0.52,0-0.94,0.42-0.94,0.94V34c0,0.52,0.42,0.94,0.94,0.94h6.01
			c0.52,0,0.94-0.42,0.94-0.94V30C35.94,29.48,35.52,29.06,35.01,29.06z M34.07,33.07h-4.14v-2.13h4.14V33.07z"/>
	</g>
</g>
</svg>
